<?xml version="1.0" encoding="iso-8859-1"?>
<!-- Generator: Adobe Illustrator 19.0.0, SVG Export Plug-In . SVG Version: 6.00 Build 0)  -->
<svg version="1.1" id="Layer_1" xmlns="http://www.w3.org/2000/svg" xmlns:xlink="http://www.w3.org/1999/xlink" x="0px" y="0px"
	 viewBox="0 0 275.972 275.972" style="enable-background:new 0 0 275.972 275.972;" xml:space="preserve">
<g>
	<g>
		<g>
			<path style="fill:#4EFFBB;" d="M245.193,21.202L56.045,21.229c-16.132,0-29.279,12.736-29.279,28.402l0.027,123.798
				c0,15.639,13.119,28.375,29.251,28.375h65.103v41.001H78.723c-3.889,0-7.039,3.068-7.039,6.847v19.473
				c0,3.78,3.15,6.847,7.039,6.847l146.174-0.027c3.889,0,7.039-3.068,7.039-6.847v-19.446c0-3.78-3.15-6.847-7.066-6.847h-43.603
				v-41.001h63.926c16.132,0,29.279-12.763,29.251-28.402V49.604C274.444,33.938,261.325,21.202,245.193,21.202z"/>
		</g>
		<g>
			<g id="XMLID_13_">
				<g>
					<polygon style="fill:#302C58;" points="192.592,235.298 192.592,241.05 60.55,241.077 60.55,235.298 					"/>
					<rect x="110.015" y="180.602" style="fill:#302C58;" width="31.908" height="41.001"/>
					<path style="fill:#302C58;" d="M235.1,28.402v5.861H15.633V28.43c0-8.107,6.82-14.708,15.173-14.708l189.148-0.027
						C228.307,13.694,235.1,20.295,235.1,28.402z"/>
					<path style="fill:#302C58;" d="M235.1,152.2c0.027,8.107-6.792,14.708-15.146,14.708h-70.965h-46.013h-72.17
						c-8.354,0-15.146-6.573-15.146-14.708v-7.532H235.1C235.1,144.668,235.1,152.2,235.1,152.2z"/>
					<path style="fill:#222051;" d="M219.954,0L30.806,0.027c-16.132,0-29.279,12.736-29.279,28.402l0.008,34.852
						c0,3.9,3.163,7.061,7.064,7.061l0,0c3.9,0,7.064-3.161,7.064-7.064v-15.32h56.394v83.016H15.66v-14.379
						c0-3.897-3.161-7.055-7.055-7.055l0,0c-3.897,0-7.058,3.161-7.055,7.058l0.008,35.633c0,15.639,13.119,28.375,29.251,28.375
						h65.103v41.001H53.487c-3.889,0-7.039,3.068-7.039,6.847v19.473c0,3.78,3.15,6.847,7.039,6.847l146.175-0.027
						c3.889,0,7.039-3.068,7.039-6.847v-19.446c0-3.78-3.15-6.847-7.066-6.847h-43.603v-41.004h63.926
						c16.132,0,29.279-12.763,29.251-28.402V28.402C249.205,12.736,236.086,0,219.954,0z M192.592,235.298v5.752L60.55,241.077
						v-5.779L192.592,235.298L192.592,235.298z M110.015,221.604v-41.001h31.908v41.001H110.015z M235.1,152.2
						c0.027,8.107-6.792,14.708-15.146,14.708H30.806c-8.354,0-15.146-6.573-15.146-14.708v-7.532H235.1
						C235.1,144.668,235.1,152.2,235.1,152.2z M235.1,130.974H86.159V47.958H235.1V130.974z M235.1,34.264H15.633V28.43
						c0-8.107,6.82-14.708,15.173-14.708l189.148-0.027c8.354,0,15.146,6.601,15.146,14.708L235.1,34.264L235.1,34.264z"/>
					<path style="fill:#222051;" d="M8.599,74.407L8.599,74.407c-3.9,0-7.061,3.161-7.061,7.061l0.003,16.946
						c0,3.897,3.161,7.058,7.058,7.058l0,0c3.897,0,7.058-3.161,7.058-7.058V81.468C15.66,77.568,12.499,74.407,8.599,74.407z"/>
					<rect x="191.935" y="116.923" style="fill:#222051;" width="15.94" height="6.546"/>
					<rect x="191.935" y="103.831" style="fill:#222051;" width="15.94" height="6.546"/>
					<rect x="191.935" y="88.302" style="fill:#222051;" width="15.94" height="6.573"/>
					<rect x="191.935" y="72.635" style="fill:#222051;" width="15.94" height="6.546"/>
					<rect x="191.935" y="57.106" style="fill:#222051;" width="15.94" height="6.546"/>
					<rect x="169.394" y="116.923" style="fill:#222051;" width="15.94" height="6.546"/>
					<rect x="169.394" y="103.831" style="fill:#222051;" width="15.94" height="6.546"/>
					<rect x="169.394" y="72.635" style="fill:#222051;" width="15.94" height="6.546"/>
					<rect x="169.394" y="57.106" style="fill:#222051;" width="15.94" height="6.546"/>
					<rect x="145.812" y="116.923" style="fill:#222051;" width="15.94" height="6.546"/>
					<rect x="145.812" y="72.635" style="fill:#222051;" width="15.94" height="6.546"/>
					<rect x="145.812" y="57.106" style="fill:#222051;" width="15.94" height="6.546"/>
					<rect x="123.271" y="88.329" style="fill:#222051;" width="15.94" height="6.546"/>
					<polygon style="fill:#222051;" points="139.211,57.106 139.211,63.652 123.271,63.679 123.271,57.106 					"/>
					<rect x="100.264" y="103.831" style="fill:#222051;" width="15.94" height="6.546"/>
					<rect x="100.264" y="88.329" style="fill:#222051;" width="15.94" height="6.546"/>
					<polygon style="fill:#222051;" points="116.205,57.106 116.205,63.679 100.264,63.679 100.264,57.133 					"/>
					<polygon style="fill:#222051;" points="60.057,118.101 60.085,125.058 24.397,125.058 24.397,118.101 					"/>
					<rect x="24.397" y="102.024" style="fill:#222051;" width="35.66" height="6.957"/>
					<rect x="24.397" y="86.302" style="fill:#222051;" width="35.66" height="6.957"/>
					<rect x="24.397" y="70.417" style="fill:#222051;" width="35.66" height="6.957"/>
					<rect x="24.397" y="54.531" style="fill:#222051;" width="35.66" height="6.929"/>
				</g>
			</g>
		</g>
	</g>
</g>
<g>
</g>
<g>
</g>
<g>
</g>
<g>
</g>
<g>
</g>
<g>
</g>
<g>
</g>
<g>
</g>
<g>
</g>
<g>
</g>
<g>
</g>
<g>
</g>
<g>
</g>
<g>
</g>
<g>
</g>
</svg>
